<svg width="618" height="566" viewBox="0 0 618 566" fill="none" xmlns="http://www.w3.org/2000/svg">
<path d="M615.73 343.08C601.874 317.492 582.237 295.491 558.38 278.83C556.675 277.653 554.708 276.911 552.65 276.67C555.46 258.19 554.87 237.77 544.44 222.37C519.69 185.83 393.59 223.54 393.59 223.54C305.2 192.9 228.59 231.79 228.59 231.79C228.59 231.79 130.77 216.47 85.99 228.26C64.87 233.82 59.74 255.36 60.22 276.58H60.15C58.2775 276.577 56.4284 276.996 54.7403 277.806C53.0522 278.616 51.5686 279.797 50.4 281.26C38.49 296.14 2.51 341.97 3.49 350.82C4.67 361.43 43.56 499.31 41.8 565.9L585.09 559.9C585.09 559.9 594.09 425.9 616.6 352.55C617.576 349.403 617.263 345.997 615.73 343.08Z" fill="#3F3D56"/>
<path opacity="0.1" d="M48.88 351.42L71.27 306.63L90.12 393.84L90.34 434.32L48.88 351.42Z" fill="black"/>
<path opacity="0.1" d="M562.7 351.42L540.31 306.63L514.34 389.32L519.34 436.32L562.7 351.42Z" fill="black"/>
<path d="M88.48 391.46L514.38 389.13L519.1 436.27L90.12 435.09L88.48 391.46Z" fill="#3F3D56"/>
<path opacity="0.1" d="M88.48 391.46L514.38 389.13L519.1 436.27L90.12 435.09L88.48 391.46Z" fill="black"/>
<path opacity="0.1" d="M510.87 431.68H98.81C93.0276 431.68 88.34 436.368 88.34 442.15V471.89C88.34 477.672 93.0276 482.36 98.81 482.36H510.87C516.652 482.36 521.34 477.672 521.34 471.89V442.15C521.34 436.368 516.652 431.68 510.87 431.68Z" fill="white"/>
<path d="M432.73 262.14C432.73 262.14 431.29 260.14 429.59 261.22C428.78 261.75 424.97 266.55 421.23 271.43C419.39 273.82 417.56 276.23 416.11 278.15C414.32 280.51 413.11 282.15 413.11 282.15L412.39 283.5L408.02 291.67L403.91 299.35L402.91 302.97L416.79 307.69L432.59 303.38L431.91 300.45L431.79 299.95L431.92 293.21L432.28 274.21L432.45 265.66V264.66L432.73 262.14Z" fill="#FFE09C"/>
<path d="M400.95 308.98C400.95 308.98 415.95 314.33 423.64 311.53C423.64 311.53 430.29 309.41 432.91 307.36C432.91 307.36 435.7 305.9 431.91 301.14C431.91 301.14 422.2 307.09 413.01 304.75L403.82 302.4L400.95 308.98Z" fill="#E7C4C3"/>
<path d="M417.681 302.211C420.021 300.84 420.976 298.122 419.814 296.139C418.653 294.157 415.814 293.662 413.475 295.033C411.135 296.404 410.18 299.122 411.342 301.104C412.503 303.086 415.342 303.582 417.681 302.211Z" fill="#FF7F8E"/>
<path d="M427.656 290.251C429.996 288.88 430.951 286.162 429.789 284.18C428.628 282.198 425.79 281.702 423.45 283.073C421.11 284.444 420.155 287.162 421.317 289.145C422.478 291.127 425.317 291.622 427.656 290.251Z" fill="#FF7F8E"/>
<path d="M431.91 293.21C431.157 292.896 430.339 292.765 429.525 292.829C428.711 292.894 427.925 293.151 427.23 293.58C424.89 294.95 423.93 297.67 425.1 299.65C426.27 301.63 429.1 302.13 431.43 300.76C431.59 300.66 431.75 300.56 431.9 300.45L431.78 299.95L431.91 293.21Z" fill="#FF7F8E"/>
<path d="M414.94 285.28C414.662 284.82 414.29 284.424 413.849 284.118C413.408 283.811 412.908 283.601 412.38 283.5L408.01 291.67C408.775 292.015 409.613 292.166 410.45 292.11C411.287 292.054 412.098 291.793 412.81 291.35C415.15 289.98 416.1 287.26 414.94 285.28Z" fill="#FF7F8E"/>
<path d="M424.66 273.31C424.299 272.732 423.796 272.256 423.199 271.927C422.602 271.598 421.931 271.427 421.25 271.43C419.41 273.82 417.58 276.23 416.13 278.15L416.19 278.27C417.35 280.27 420.19 280.74 422.53 279.37C424.87 278 425.8 275.29 424.66 273.31Z" fill="#FF7F8E"/>
<path d="M432.44 265.65C431.924 265.779 431.429 265.981 430.97 266.25C428.63 267.62 427.68 270.34 428.84 272.32C429.203 272.901 429.709 273.379 430.31 273.708C430.91 274.037 431.585 274.207 432.27 274.2L432.44 265.65Z" fill="#FF7F8E"/>
<path d="M409.15 298.44L408.35 297.09C409.548 296.732 410.653 296.118 411.59 295.29C411.65 295.23 411.7 295.16 411.75 295.1C412.75 293.84 412.54 296.46 412.54 296.46C412.54 296.46 410.08 298.55 409.15 298.44Z" fill="#94CC79"/>
<path d="M420.95 296.35L420.15 294.99C421.347 294.63 422.452 294.016 423.39 293.19C423.39 293.13 423.5 293.07 423.55 293C424.55 291.75 424.34 294.36 424.34 294.36C424.34 294.36 421.88 296.46 420.95 296.35Z" fill="#94CC79"/>
<path d="M419.87 290.75L419.07 289.39C420.266 289.033 421.371 288.423 422.31 287.6C422.36 287.53 422.42 287.47 422.47 287.41C423.47 286.15 423.26 288.76 423.26 288.76C423.26 288.76 420.8 290.84 419.87 290.75Z" fill="#94CC79"/>
<path d="M421.3 280.65L420.5 279.29C421.697 278.93 422.802 278.316 423.74 277.49C423.74 277.43 423.85 277.37 423.9 277.3C424.9 276.04 424.69 278.66 424.69 278.66C424.69 278.66 422.23 280.75 421.3 280.65Z" fill="#94CC79"/>
<path d="M428.07 268.43L427.28 267.07C428.474 266.711 429.577 266.097 430.51 265.27C430.569 265.211 430.622 265.148 430.67 265.08C431.67 263.83 431.47 266.44 431.47 266.44C431.47 266.44 429 268.53 428.07 268.43Z" fill="#94CC79"/>
<path d="M427.31 280.9L426.51 279.54C427.707 279.186 428.813 278.575 429.75 277.75C429.75 277.68 429.86 277.62 429.91 277.56C430.91 276.3 430.7 278.91 430.7 278.91C430.7 278.91 428.24 281.01 427.31 280.9Z" fill="#94CC79"/>
<path d="M398.49 304.75C398.49 304.75 396.57 309.75 400.95 308.95C402.899 306.69 404.232 303.966 404.82 301.04C404.82 301.04 414.29 280.29 417.09 278.39C417.09 278.39 429.43 261.52 430.76 261.27C430.76 261.27 431.19 259.63 426.88 263.1C422.57 266.57 413.13 279.93 413.13 279.93L404.13 294.6L402.01 300.45L398.49 304.75Z" fill="#E7C4C3"/>
<path opacity="0.2" d="M398.49 304.75C398.49 304.75 396.57 309.75 400.95 308.95C402.899 306.69 404.232 303.966 404.82 301.04C404.82 301.04 414.29 280.29 417.09 278.39C417.09 278.39 429.43 261.52 430.76 261.27C430.76 261.27 431.19 259.63 426.88 263.1C422.57 266.57 413.13 279.93 413.13 279.93L404.13 294.6L402.01 300.45L398.49 304.75Z" fill="white"/>
<path d="M249.74 406.32C251.39 411.743 253.422 417.043 255.82 422.18C262.706 420.74 269.48 418.808 276.09 416.4C276.3 416.33 272.3 411.1 271.88 410.67C270.251 408.87 268.31 407.379 266.15 406.27C264.04 405.35 261.44 406.05 259.15 406.17C256.03 406.33 252.893 406.38 249.74 406.32Z" fill="#FBBEBE"/>
<path d="M266.19 414.53C262.75 413.45 260.65 409.98 259.25 406.64C257.85 403.3 256.72 399.64 254.06 397.2C253.555 397.277 253.077 397.478 252.668 397.785C252.26 398.092 251.934 398.496 251.72 398.96C251.305 399.897 250.841 400.812 250.33 401.7C249.23 403.3 247.33 404.08 245.88 405.44C244.43 406.8 243.62 408.87 242.11 410.24C240.21 411.96 237.53 412.39 235.04 412.96C231.183 413.836 227.458 415.214 223.96 417.06C222.673 417.837 221.296 418.455 219.86 418.9C218.279 419.208 216.658 419.262 215.06 419.06L204.06 418.28C203.08 418.154 202.086 418.195 201.12 418.4C200.008 418.806 199.061 419.568 198.428 420.569C197.795 421.569 197.511 422.751 197.62 423.93C197.761 425.105 198.143 426.238 198.742 427.258C199.34 428.278 200.143 429.164 201.1 429.86C203.022 431.226 205.139 432.295 207.38 433.03C216.976 436.658 226.856 439.481 236.92 441.47V443.65C243.916 447.098 251.611 448.891 259.41 448.89C259.985 448.931 260.562 448.831 261.09 448.6C261.812 448.078 262.317 447.309 262.51 446.44C265.158 438.695 266.703 430.616 267.1 422.44C267.296 420.372 267.137 418.285 266.63 416.27C266.03 414.27 268.09 415.12 266.18 414.34" fill="#2F2E41"/>
<path d="M477.51 372.99C444.84 374.99 412.51 365.38 379.85 364.36C375.783 364.103 371.7 364.365 367.7 365.14C363.5 366.08 359.58 367.98 355.7 369.8C338.15 377.96 320.01 384.72 301.88 391.47L281.06 399.23C276.9 400.78 272.59 402.35 268.16 402.08C266.16 401.96 263.73 401.66 262.62 403.31C259.23 408.31 260.83 415.7 263.07 421.31C263.79 423.13 265.07 425.11 266.97 425.31C268.34 425.45 269.62 424.66 270.97 424.31C274.76 423.31 278.54 425.85 282.44 426.26C287.26 426.77 291.73 424.03 296.28 422.35C303.82 419.56 312.07 419.65 320 418.35C333.3 416.13 345.62 409.96 357.14 402.93C361.52 400.25 365.96 397.38 371 396.4C376.79 395.27 382.74 396.76 388.43 398.4C401.973 402.23 415.304 406.769 428.37 412C435.25 414.76 442.09 417.71 449.25 419.62C464.738 423.692 481.12 422.736 496.03 416.89C501.25 414.82 506.94 411.17 507.24 405.53C507.41 402.31 504.91 399.53 503.24 396.73C502.18 394.96 501.11 393.2 499.94 391.5C494.27 383.24 487.43 372.4 477.51 372.99Z" fill="#2F2E41"/>
<path opacity="0.1" d="M477.51 372.99C444.84 374.99 412.51 365.38 379.85 364.36C375.783 364.103 371.7 364.365 367.7 365.14C363.5 366.08 359.58 367.98 355.7 369.8C338.15 377.96 320.01 384.72 301.88 391.47L281.06 399.23C276.9 400.78 272.59 402.35 268.16 402.08C266.16 401.96 263.73 401.66 262.62 403.31C259.23 408.31 260.83 415.7 263.07 421.31C263.79 423.13 265.07 425.11 266.97 425.31C268.34 425.45 269.62 424.66 270.97 424.31C274.76 423.31 278.54 425.85 282.44 426.26C287.26 426.77 291.73 424.03 296.28 422.35C303.82 419.56 312.07 419.65 320 418.35C333.3 416.13 345.62 409.96 357.14 402.93C361.52 400.25 365.96 397.38 371 396.4C376.79 395.27 382.74 396.76 388.43 398.4C401.973 402.23 415.304 406.769 428.37 412C435.25 414.76 442.09 417.71 449.25 419.62C464.738 423.692 481.12 422.736 496.03 416.89C501.25 414.82 506.94 411.17 507.24 405.53C507.41 402.31 504.91 399.53 503.24 396.73C502.18 394.96 501.11 393.2 499.94 391.5C494.27 383.24 487.43 372.4 477.51 372.99Z" fill="black"/>
<path d="M312.46 407.91C317.567 409.65 322.727 411.253 327.94 412.72C330.85 407.94 336.3 404.61 337.54 399.15C337.592 399.029 337.618 398.899 337.616 398.767C337.614 398.636 337.584 398.506 337.528 398.387C337.472 398.268 337.392 398.162 337.292 398.077C337.193 397.991 337.076 397.927 336.95 397.89C333.225 395.827 329.089 394.615 324.84 394.34C321.48 394.13 319.95 397.63 318.42 400.1C317.81 401.09 313.83 408.38 312.46 407.91Z" fill="#FBBEBE"/>
<path d="M319.66 404.42C318.133 404.162 316.676 403.589 315.382 402.739C314.087 401.889 312.983 400.779 312.14 399.48C311.42 398.22 310.65 396.48 309.21 396.61C307.77 396.74 307.21 398.3 306.95 399.61C305.98 404.569 304.571 409.431 302.74 414.14C300.901 418.859 297.785 422.973 293.74 426.02C291.84 427.33 289.74 428.32 287.88 429.7C286.21 430.93 284.76 432.49 282.88 433.44C281.651 434.009 280.381 434.484 279.08 434.86C277.172 435.533 275.347 436.422 273.64 437.51C272.141 438.377 270.872 439.591 269.94 441.05C269.469 441.789 269.193 442.635 269.139 443.51C269.085 444.385 269.254 445.259 269.63 446.05C270.025 446.696 270.553 447.252 271.179 447.679C271.805 448.107 272.514 448.397 273.26 448.53C274.749 448.79 276.269 448.831 277.77 448.65C283.72 448.21 289.67 447.65 295.62 447.15C298.134 446.998 300.634 446.663 303.1 446.15C304.41 445.83 305.68 445.42 306.98 445.08C309.205 444.508 311.484 444.173 313.78 444.08C314.452 444.027 315.128 444.088 315.78 444.26C317.16 444.71 318.13 446.08 319.56 446.36C320.472 446.447 321.393 446.324 322.25 446C326.53 444.83 331.04 444.86 335.47 444.62C337.47 444.52 339.71 444.15 340.61 442.4C341.73 440.22 339.87 437.78 339.14 435.4C338.767 433.904 338.559 432.371 338.52 430.83C338.183 427.027 337.067 423.333 335.24 419.98C333.73 417.2 331.66 414.12 332.72 411.13C333.08 410.13 333.8 409.13 333.72 408.13C333.38 403.34 322.37 404.99 319.66 404.42Z" fill="#2F2E41"/>
<path d="M428.52 320.58C422.737 318.025 418.106 313.419 415.52 307.65C414.97 306.41 414.52 305.12 414 303.87C412.285 299.709 409.621 296.007 406.22 293.06C405.854 292.661 405.407 292.345 404.908 292.134C404.409 291.924 403.871 291.823 403.33 291.84C402.807 291.999 402.335 292.294 401.963 292.695C401.591 293.095 401.331 293.587 401.21 294.12C400.911 295.258 400.836 296.443 400.99 297.61C401.282 300.358 401.757 303.084 402.41 305.77L403.99 312.98C404.185 314.092 404.521 315.174 404.99 316.2C405.668 317.415 406.567 318.494 407.64 319.38C409.09 320.72 410.56 322.01 412.05 323.27C414.127 325.258 416.832 326.46 419.7 326.67C426.18 327.87 432.78 329.61 438.26 333.84C438.19 333.84 438.26 329 438.14 328.45C437.89 327 437.69 325.56 436.75 324.58C434.6 322.38 431.11 321.75 428.52 320.58Z" fill="#FBBEBE"/>
<path opacity="0.1" d="M428.52 320.58C422.737 318.025 418.106 313.419 415.52 307.65C414.97 306.41 414.52 305.12 414 303.87C412.285 299.709 409.621 296.007 406.22 293.06C405.854 292.661 405.407 292.345 404.908 292.134C404.409 291.924 403.871 291.823 403.33 291.84C402.807 291.999 402.335 292.294 401.963 292.695C401.591 293.095 401.331 293.587 401.21 294.12C400.911 295.258 400.836 296.443 400.99 297.61C401.282 300.358 401.757 303.084 402.41 305.77L403.99 312.98C404.185 314.092 404.521 315.174 404.99 316.2C405.668 317.415 406.567 318.494 407.64 319.38C409.09 320.72 410.56 322.01 412.05 323.27C414.127 325.258 416.832 326.46 419.7 326.67C426.18 327.87 432.78 329.61 438.26 333.84C438.19 333.84 438.26 329 438.14 328.45C437.89 327 437.69 325.56 436.75 324.58C434.6 322.38 431.11 321.75 428.52 320.58Z" fill="black"/>
<path d="M495.05 265.37C499.441 265.37 503 261.793 503 257.38C503 252.967 499.441 249.39 495.05 249.39C490.659 249.39 487.1 252.967 487.1 257.38C487.1 261.793 490.659 265.37 495.05 265.37Z" fill="#2F2E41"/>
<path d="M490.13 252.55C487.98 252.31 485.58 252.14 483.85 253.46C482.932 254.267 482.198 255.263 481.7 256.38C479.921 259.438 478.534 262.707 477.57 266.11C476.86 269.03 476.74 272.11 475.86 274.95C474.23 280.27 470.06 284.76 469.58 290.31C469.37 292.79 469.79 295.7 467.97 297.4C467.526 297.773 467.051 298.108 466.55 298.4C465.293 299.242 464.226 300.339 463.42 301.62C462.874 302.77 462.121 303.811 461.2 304.69C459.58 305.89 456.9 305.76 456.1 307.62C455.3 309.48 457.36 311.62 456.88 313.62C456.49 315.26 454.66 316.01 453.4 317.13C451.78 318.56 451.04 320.71 450.4 322.77C447.743 323.272 445.009 323.194 442.385 322.539C439.761 321.885 437.31 320.671 435.2 318.98C437.41 324.44 437.46 330.47 437.56 336.37C437.56 338.28 437.56 340.43 436.16 341.76C442.49 341.9 448.66 343.61 454.83 345.01C457.53 345.62 460.46 346.15 462.97 345.01C464.387 344.247 465.651 343.23 466.7 342.01C470.06 338.6 473.58 334.89 474.4 330.16C474.86 327.52 474.4 324.8 474.54 322.16C474.849 318.844 475.52 315.571 476.54 312.4C478.319 305.825 479.514 299.105 480.11 292.32C480.47 288.14 484.11 284.77 485.99 281.02C489.59 273.96 493.26 266.6 493.53 258.67C493.66 256.05 492.76 252.84 490.13 252.55Z" fill="#F50057"/>
<path d="M482.66 379.87C475.86 376.63 470.88 370.6 465.38 365.43C454.88 355.57 442.03 348.59 430.99 339.34C423.67 333.22 417.13 326.08 409.09 320.95C402.014 316.452 393.996 313.646 385.66 312.75C384.705 312.58 383.724 312.628 382.79 312.89C381.736 313.356 380.817 314.082 380.12 315C376.558 319.021 373.39 323.374 370.66 328C356.66 351.75 336.78 371.75 320.31 393.82C319.79 394.345 319.482 395.044 319.445 395.782C319.408 396.52 319.645 397.246 320.11 397.82L323.46 404.38C325.33 408.06 328.34 412.38 332.38 411.61C334.23 411.27 335.7 409.91 337.06 408.61L352.06 394.24L367.83 379.16C377.07 370.33 386.46 361.29 392.49 350C397.19 358.16 405.55 363.5 411.28 371C413.46 373.84 415.28 377 417.18 380C420.3 384.82 423.85 389.35 427.39 393.87L445.48 416.96C447.94 420.1 450.48 423.32 453.85 425.45C458.14 428.16 463.35 428.88 468.39 429.33C475.186 429.937 482.008 430.184 488.83 430.07C494.03 429.98 499.39 429.64 504.06 427.33C508.73 425.02 512.56 420.33 512.32 415.05C512.034 412.337 511.142 409.722 509.71 407.4C503.29 395.5 494.84 385.65 482.66 379.87Z" fill="#2F2E41"/>
<path d="M499.94 269.06C503.314 269.06 506.05 266.307 506.05 262.91C506.05 259.513 503.314 256.76 499.94 256.76C496.566 256.76 493.83 259.513 493.83 262.91C493.83 266.307 496.566 269.06 499.94 269.06Z" fill="#E8E8F0"/>
<path d="M498.59 258.29C499.964 261.028 500.205 264.196 499.26 267.11C498.314 269.985 496.993 272.722 495.33 275.25C493.899 277.86 492.186 280.305 490.22 282.54C499.65 283 508.8 279.3 517.12 274.81C523.82 271.21 530.5 266.75 534.12 260.01C533.056 260.268 531.949 260.299 530.873 260.1C529.796 259.902 528.773 259.48 527.87 258.86C526.074 257.606 524.465 256.105 523.09 254.4L518.35 249.07C517.238 247.912 516.261 246.63 515.44 245.25C514.413 243.362 513.977 241.209 514.19 239.07C512.309 241.041 510.205 242.786 507.92 244.27C504.54 246.47 500.81 248.07 497.42 250.27C496.22 251.04 493.54 252.27 494.23 253.86C494.92 255.45 497.66 256.61 498.59 258.29Z" fill="#FBBEBE"/>
<path opacity="0.1" d="M498.59 258.29C499.964 261.028 500.205 264.196 499.26 267.11C498.314 269.985 496.993 272.722 495.33 275.25C493.899 277.86 492.186 280.305 490.22 282.54C499.65 283 508.8 279.3 517.12 274.81C523.82 271.21 530.5 266.75 534.12 260.01C533.056 260.268 531.949 260.299 530.873 260.1C529.796 259.902 528.773 259.48 527.87 258.86C526.074 257.606 524.465 256.105 523.09 254.4L518.35 249.07C517.238 247.912 516.261 246.63 515.44 245.25C514.413 243.362 513.977 241.209 514.19 239.07C512.309 241.041 510.205 242.786 507.92 244.27C504.54 246.47 500.81 248.07 497.42 250.27C496.22 251.04 493.54 252.27 494.23 253.86C494.92 255.45 497.66 256.61 498.59 258.29Z" fill="black"/>
<path d="M498.72 259.22C496.95 262.22 496.57 265.72 498.72 268.44C498.99 268.78 499.98 270.88 500.41 270.9C500.826 270.858 501.212 270.662 501.49 270.35C503.78 268.26 505.49 265.59 507.49 263.22C509.49 260.85 512.04 258.7 515.1 258.22C518.79 257.65 522.36 259.6 525.59 261.49C526.995 262.175 528.221 263.178 529.17 264.42C529.851 265.651 530.254 267.016 530.35 268.42C531.46 276.83 531.44 285.35 531.41 293.83C531.41 299.97 531.41 306.14 530.21 312.16C529.61 315.28 528.71 318.33 528.28 321.47C527.971 324.242 527.848 327.032 527.91 329.82V341.5C527.829 343.643 527.98 345.789 528.36 347.9C528.91 350.46 530.12 352.82 530.93 355.31C531.766 358.172 532.339 361.104 532.64 364.07L534.24 376.16C534.74 379.97 535.11 384.16 532.81 387.16C531.81 388.54 530.4 389.65 529.35 391.03C525.35 396.17 526.66 403.52 525.01 409.81C523.712 414.415 521.039 418.514 517.35 421.56C514.52 423.96 510.87 425.84 507.24 425.17C502.33 424.26 499.38 419.17 498.04 414.3C496.7 409.43 496.22 404.2 493.32 400.12C490.95 396.78 487.32 394.68 483.96 392.3C480.6 389.92 477.4 386.85 476.68 382.81C476.36 381.05 476.56 379.24 476.37 377.46C476.109 375.204 475.245 373.06 473.869 371.253C472.493 369.445 470.655 368.042 468.55 367.19C466.04 366.19 462.94 365.86 461.55 363.56C465.21 361.5 467.63 357.69 468.91 353.68C470.19 349.67 470.45 345.41 470.7 341.21L471.54 327.16C471.91 320.88 472.08 314.66 474.85 309.02C476.08 306.49 477.62 304.13 478.91 301.64C480.612 298.136 482.065 294.517 483.26 290.81C485.26 285.05 487.26 279.29 489.06 273.46C489.776 270.644 490.845 267.929 492.24 265.38C493.66 262.94 495.88 259.75 498.72 259.22Z" fill="#F50057"/>
<path d="M521.04 252.51C517.43 253.93 515.45 257.85 514.44 261.61C513.43 265.37 513.01 269.39 511.07 272.76C506.53 280.65 494.97 282.95 491.78 291.48C490.78 294.27 490.78 297.33 490.49 300.3C489.91 306.41 487.9 312.3 487.31 318.42C486.995 323.167 487.106 327.933 487.64 332.66L491.64 380.85C492.23 387.85 492.21 395.28 490.43 402.04C494.52 402.83 498.78 401.77 502.57 400.04C506.36 398.31 509.83 395.93 513.48 393.92C519.76 390.45 526.69 388 532.19 383.38C533.187 382.605 534.04 381.66 534.71 380.59C535.81 378.69 535.91 376.38 536.43 374.24C536.904 372.529 537.509 370.858 538.24 369.24C540.255 364.383 542.01 359.423 543.5 354.38C544.523 351.036 545.328 347.629 545.91 344.18C546.35 341.44 546.59 338.66 546.83 335.89C547.123 331.55 547.984 327.267 549.39 323.15C552.904 313.337 554.897 303.045 555.3 292.63C555.413 291.126 555.309 289.614 554.99 288.14C554.373 286.353 553.555 284.642 552.55 283.04C550.87 279.88 549.86 276.4 548.28 273.18C544.7 265.93 538.37 260.42 531.75 255.81C528.53 253.56 524.73 251.07 521.04 252.51Z" fill="#F50057"/>
<path d="M436.57 331.13C433.698 329.623 431.099 327.645 428.88 325.28C427.88 324.1 427.04 322.77 426.01 321.61C423.414 318.836 420.039 316.912 416.33 316.09C412.65 315.282 408.887 314.916 405.12 315C402.599 314.839 400.07 315.145 397.66 315.9C396.454 316.294 395.368 316.988 394.504 317.917C393.64 318.846 393.026 319.979 392.72 321.21C392.17 324.21 394.13 327.12 396.48 329.05C398.668 330.835 401.243 332.085 404 332.7C406.247 333.089 408.514 333.352 410.79 333.49C424.17 334.89 436.11 342.17 447.79 348.8C458.09 354.633 468.587 360.08 479.28 365.14C479.701 361.935 479.879 358.702 479.81 355.47C479.75 353.06 479.63 349.38 477.35 347.96C474.7 346.31 470.35 345.96 467.35 344.96C460.458 342.7 453.726 339.977 447.2 336.81C443.593 335.043 440.05 333.15 436.57 331.13Z" fill="#FBBEBE"/>
<path d="M525.416 229.054C529.49 213.558 520.024 197.639 504.273 193.498C488.522 189.357 472.451 198.562 468.377 214.058C464.303 229.555 473.769 245.474 489.519 249.615C505.27 253.756 521.342 244.55 525.416 229.054Z" fill="#FBBEBE"/>
<path d="M527.86 279.69C525.73 282.17 524.66 285.37 523.23 288.31C520.29 294.37 515.67 299.57 513.36 305.91C510.92 312.59 511 320.53 506.22 325.78C505.39 326.69 504.39 327.57 504.15 328.78C504.117 329.515 504.034 330.247 503.9 330.97C503.22 332.87 500.1 332.97 499.52 334.91C499.35 335.48 499.44 336.1 499.23 336.66C498.75 337.91 497.1 338.1 495.99 338.86C493.67 340.43 494.14 344.07 492.49 346.34C491.766 347.189 490.828 347.83 489.773 348.196C488.718 348.561 487.585 348.639 486.49 348.42C484.323 347.975 482.238 347.196 480.31 346.11C479.625 345.73 478.87 345.495 478.09 345.42C477.166 345.449 476.272 345.752 475.52 346.29C471.12 349.09 469.05 354.64 469.08 359.88C469.11 365.12 470.91 370.16 472.75 375.06C473.005 375.886 473.419 376.654 473.97 377.32C475.43 378.86 477.97 378.62 479.91 377.76C481.85 376.9 483.61 375.55 485.69 375.17C489.38 374.5 492.99 377.04 496.69 376.83C499.43 376.67 501.86 375.08 504.13 373.54C507.77 371.08 511.47 368.54 514.13 365.06C515.77 362.92 516.97 360.49 518.4 358.2C520.23 355.41 522.234 352.738 524.4 350.2L538.14 333.38C539.519 331.787 540.757 330.077 541.84 328.27C543.091 325.829 544.057 323.252 544.72 320.59C546.03 316.1 547.35 311.59 547.57 306.9C547.646 303.052 547.311 299.207 546.57 295.43C546.096 291.666 545.085 287.988 543.57 284.51C540.74 278.27 533.47 273.14 527.86 279.69Z" fill="#F50057"/>
<path d="M505.959 240.381C507.573 239.155 507.551 236.41 505.911 234.251C504.271 232.092 501.633 231.335 500.019 232.561C498.405 233.787 498.426 236.531 500.066 238.691C501.706 240.85 504.345 241.607 505.959 240.381Z" fill="#FBBEBE"/>
<path d="M345.51 222.58C344.51 226.58 340.3 229.84 335.62 232.09C325.76 236.84 313.62 238.25 301.83 238.73C298.83 238.912 295.821 238.855 292.83 238.56C286.66 237.83 280.94 235.2 277.37 231.45C276.861 231.041 276.508 230.469 276.37 229.83C276.395 229.447 276.496 229.072 276.668 228.729C276.84 228.386 277.078 228.08 277.37 227.83C283.66 220.97 294.14 216.75 304.66 213.75C312.66 211.44 326.6 205.46 335.33 206.27C343.81 207 346.75 217.48 345.51 222.58Z" fill="#3F3D56"/>
<path opacity="0.1" d="M345.51 222.58C344.51 226.58 340.3 229.84 335.62 232.09C325.76 236.84 313.62 238.25 301.83 238.73C298.83 238.912 295.821 238.855 292.83 238.56C286.66 237.83 280.94 235.2 277.37 231.45C276.861 231.041 276.508 230.469 276.37 229.83C276.395 229.447 276.496 229.072 276.668 228.729C276.84 228.386 277.078 228.08 277.37 227.83C283.66 220.97 294.14 216.75 304.66 213.75C312.66 211.44 326.6 205.46 335.33 206.27C343.81 207 346.75 217.48 345.51 222.58Z" fill="black"/>
<path d="M220.25 192.44C217.251 198.324 216.708 205.157 218.74 211.44C220.812 217.688 224.692 223.18 229.89 227.22C242.66 237.47 260.18 238.88 276.51 238.75C290.829 238.621 305.128 237.639 319.33 235.81C324.06 235.2 328.84 234.48 333.22 232.59C338.55 230.28 343.22 226.05 345.13 220.59C347.04 215.13 345.69 208.37 341.13 204.71C337.13 201.49 331.7 201.05 326.61 200.71L297.46 198.96C300.34 196.04 304.17 194.39 307.68 192.28C312.33 189.46 315.42 184.74 318.81 180.49C323.81 174.13 329.81 168.57 335.81 163.04C336.81 168.48 340.2 172.95 344.25 176.71C348.3 180.47 352.97 183.49 357.19 187.06C367.39 195.72 374.73 207.48 385.46 215.48C392.842 213.539 399.743 210.094 405.73 205.36L401.56 197.81C401.218 197.019 400.677 196.33 399.99 195.81C398.8 195.09 397.28 195.46 395.91 195.26C392.25 194.71 390.65 190.48 389.21 187.07C385.27 177.69 377.71 170.42 371.21 162.56C366.469 156.765 362.269 150.55 358.66 143.99C356.49 140.08 354.51 135.99 351.56 132.62C348.61 129.25 344.5 126.62 340.02 126.62C336.02 126.62 332.42 128.62 329.02 130.62C318.663 136.774 308.697 143.563 299.18 150.95C294.18 154.81 289.25 158.9 283.41 161.27C280.95 162.27 278.41 162.95 276 164.16C271.87 166.29 268.73 169.89 265.35 173.08C253.31 184.47 236.82 191.85 220.25 192.44Z" fill="#605D82"/>
<path d="M281.21 111.34C281.08 114.826 280.339 118.261 279.02 121.49C278.352 123.094 277.361 124.544 276.109 125.748C274.856 126.952 273.369 127.886 271.74 128.49C269.422 129.111 266.993 129.19 264.64 128.72C262.584 128.498 260.605 127.815 258.85 126.72C256.12 124.84 254.76 121.49 254.26 118.21C253.76 114.93 253.99 111.58 253.67 108.28C253.359 105.613 252.85 102.972 252.15 100.38C251.94 99.52 251.72 98.66 251.5 97.8C251.28 96.94 251.09 96.08 250.9 95.22C250.71 94.36 250.56 93.61 250.42 92.79C250.28 91.97 250.2 91.41 250.13 90.72C250.066 88.6581 249.73 86.6137 249.13 84.64C248.56 83.3623 247.846 82.1544 247 81.04C246.64 80.52 246.29 80.04 246 79.47C245.069 78.0768 244.636 76.4102 244.77 74.74C244.808 74.4811 244.872 74.2265 244.96 73.98C244.991 73.8844 245.027 73.7909 245.07 73.7C245.427 73.6021 245.754 73.419 246.024 73.1664C246.294 72.9138 246.499 72.5993 246.62 72.25C246.757 71.4964 246.691 70.72 246.43 70C246.136 68.9944 245.73 68.025 245.22 67.11C244.89 66.51 243.76 65.42 243.75 64.73C243.75 63.34 246.45 62.22 247.55 61.67C250.91 59.9846 254.659 59.2252 258.41 59.47C260.81 59.63 263.41 60.37 264.74 62.39C265.94 64.2 265.74 66.55 266.29 68.66C266.336 68.9681 266.464 69.2582 266.66 69.5C266.921 69.7374 267.25 69.8877 267.6 69.93C268.186 70.0482 268.787 70.0718 269.38 70C269.538 69.9914 269.696 69.968 269.85 69.93C270.775 69.759 271.649 69.3832 272.41 68.83C272.91 68.69 273.41 68.59 273.9 68.5H273.96C275.96 74.78 276.21 81.5 277.84 87.92C278.65 91.1 279.84 94.24 279.97 97.52C279.97 97.66 279.97 97.81 279.97 97.95C279.97 99.01 279.91 100.07 279.97 101.12C279.988 101.59 280.042 102.058 280.13 102.52C280.31 103.265 280.531 103.999 280.79 104.72C280.86 104.95 280.93 105.18 280.99 105.42C281.039 105.588 281.08 105.758 281.11 105.93C281.403 107.719 281.437 109.541 281.21 111.34Z" fill="#FBBEBE"/>
<path d="M253 63C270.673 63 285 48.897 285 31.5C285 14.103 270.673 0 253 0C235.327 0 221 14.103 221 31.5C221 48.897 235.327 63 253 63Z" fill="#FBBEBE"/>
<path d="M402.16 174.54C401.477 168.151 399.204 162.035 395.55 156.75L397.38 167.6C396.621 167.817 395.815 167.809 395.06 167.577C394.306 167.344 393.635 166.897 393.13 166.29C392.141 165.057 391.385 163.654 390.9 162.15C388.237 155.54 384.753 149.291 380.53 143.55C365.61 142.3 350.85 136.12 337.73 128.9C324.61 121.68 312.32 113.05 299.36 105.54C297.113 104.185 294.774 102.989 292.36 101.96C288.31 100.34 283.76 99.5 279.92 97.59L279.15 97.18C278.28 96.7131 277.456 96.1639 276.69 95.54C276.279 95.2004 275.888 94.8364 275.52 94.45C273.602 92.222 272.08 89.6819 271.02 86.94C268.96 82.38 268.22 76.87 266.17 72.31C267.116 71.4295 268.175 70.6795 269.32 70.08L269.82 69.83C270.635 69.4496 271.481 69.1418 272.35 68.91C272.85 68.77 273.35 68.67 273.84 68.58H273.9C276.224 68.2054 278.604 68.394 280.84 69.13C284.1 70.24 286.84 72.44 289.6 74.53C293.95 77.82 298.47 80.92 302.42 84.69C304.68 86.86 306.75 89.24 309.18 91.21C311.206 92.774 313.342 94.191 315.57 95.45L355.11 119C359.57 121.65 364.04 124.31 368.4 127.13C375.03 131.4 381.4 136.03 387.8 140.66L399.09 148.84C400.327 149.642 401.41 150.657 402.29 151.84C403.064 153.166 403.545 154.642 403.7 156.17C404.638 162.329 404.111 168.623 402.16 174.54Z" fill="#FBBEBE"/>
<path d="M287.03 128.97C285.44 136.06 278.28 140.35 274.53 146.58C269.87 154.31 271.77 163.3 273.53 172.16L263.94 180.42C262.18 181.93 260.41 183.42 258.52 184.79C255.748 186.653 252.851 188.324 249.85 189.79L241.37 194.15C238.739 195.628 235.952 196.809 233.06 197.67C227.48 199.1 221.56 198.1 216.06 196.45C215.409 196.28 214.784 196.025 214.2 195.69C213.857 195.484 213.558 195.212 213.32 194.89C212.772 193.915 212.574 192.783 212.76 191.68C213.32 182.4 215.59 173.31 217.85 164.29C219.038 158.873 220.646 153.557 222.66 148.39C224.644 143.967 226.926 139.684 229.49 135.57C232.49 130.5 235.49 125.39 239.49 121.04C241.2 119.16 243.11 117.38 244.13 115.04C245.54 111.82 244.99 108.13 245.28 104.63C245.496 101.995 246.194 99.4225 247.34 97.04C247.953 95.7577 248.69 94.5386 249.54 93.4C249.93 94.3 250.31 95.2 250.7 96.09L251.45 97.85C251.78 98.6 252.1 99.36 252.45 100.11C253.383 102.257 254.31 104.407 255.23 106.56C256.223 109.272 257.644 111.808 259.44 114.07C261.35 116.23 264.16 117.8 267.02 117.49C268.363 117.266 269.64 116.746 270.757 115.968C271.874 115.189 272.804 114.172 273.48 112.99C274.82 110.622 275.788 108.062 276.35 105.4C277.138 102.161 277.247 98.7934 276.67 95.51C275.67 89.18 273.02 82.72 271.07 76.84C270.275 74.8809 269.815 72.8018 269.71 70.69C269.709 70.4515 269.732 70.2136 269.78 69.98V69.8C270.595 69.4196 271.441 69.1118 272.31 68.88C272.81 68.74 273.31 68.64 273.8 68.55C275.52 77.8833 277.243 87.1966 278.97 96.49C278.97 96.71 279.06 96.93 279.1 97.15C279.34 98.49 279.59 99.82 279.87 101.15C280.15 102.48 280.39 103.56 280.69 104.75C280.79 105.15 280.9 105.56 281.01 105.96C281.32 107.06 281.66 108.14 282.01 109.22C284.45 115.75 288.52 122.26 287.03 128.97Z" fill="#F50057"/>
<path d="M382.17 228.64C382.084 230.017 382.348 231.394 382.94 232.64C384.4 235.32 387.94 235.93 390.94 236.18C408.734 237.647 426.637 237.103 444.31 234.56C445.27 234.49 446.201 234.199 447.03 233.71C449.54 231.95 448.03 227.66 445.25 226.28C442.47 224.9 439.25 225.28 436.25 224.65C433.258 223.893 430.408 222.657 427.81 220.99C421.71 217.483 415.71 213.817 409.81 209.99C406.28 207.72 402.11 205.3 398.14 206.65C387.35 210.29 382.09 217.03 382.17 228.64Z" fill="#2F2E41"/>
<path d="M250.99 94.75L250.9 95.24L250.75 96.06C250.26 98.58 249.65 101.06 248.96 103.59C247.05 110.48 244.5 117.27 241.96 123.95L221.55 177.75C219.83 182.27 218.12 186.75 216.17 191.21C215.52 192.68 214.85 194.21 214.17 195.67C211.78 201.04 209.48 206.59 208.72 212.32C208.22 216.11 207.72 219.98 208.47 223.73C209.22 227.48 211.47 231.15 215.08 232.53C216.82 233.21 219.31 234.12 218.83 235.93C218.58 236.93 217.45 237.41 216.43 237.57C215.093 237.786 213.724 237.703 212.422 237.328C211.12 236.953 209.918 236.294 208.9 235.4C207 233.72 205.53 231.09 203 230.81C201.25 230.62 199.64 231.67 198 232.4C191.45 235.4 183.83 233.3 176.95 231.17C177.49 228.39 180.29 226.55 183.06 226C185.83 225.45 188.71 225.83 191.55 225.76C192.458 225.807 193.359 225.573 194.13 225.09C194.826 224.468 195.324 223.654 195.56 222.75C197.382 217.343 198.737 211.789 199.61 206.15C200.53 200.25 200.91 194.27 202.21 188.45C203.21 183.91 204.79 179.51 206.13 175.05C208.731 165.871 210.864 156.566 212.52 147.17C213.359 143.27 213.96 139.323 214.32 135.35C214.55 132.05 214.44 128.73 214.76 125.45C215.291 121.176 216.181 116.955 217.42 112.83C218.64 108.32 219.85 103.83 221.07 99.33C222.87 92.67 224.8 85.76 229.36 80.59C230.943 78.7678 232.884 77.2904 235.061 76.2496C237.239 75.2089 239.608 74.6269 242.02 74.54C242.925 74.5359 243.827 74.6331 244.71 74.83L245.15 74.94C246.116 75.1887 247.042 75.5725 247.9 76.08C249.31 75.18 250.02 75.5 250.96 76.87C251.776 78.3331 252.161 79.9973 252.07 81.67C252.142 86.0549 251.78 90.4362 250.99 94.75Z" fill="#FBBEBE"/>
<path d="M252.53 100.06L252.47 100.12L252.15 100.44L248.96 103.63L247.39 97.05L242.02 74.51C242.925 74.5059 243.827 74.6031 244.71 74.8C244.748 74.541 244.812 74.2865 244.9 74.04L245.15 74.91L246.97 81.1L250.42 92.85L250.99 94.79L252.53 100.06Z" fill="#F50057"/>
<path d="M422.98 207.6C422.98 207.6 425.56 208.05 425.98 205.96C426.19 204.96 425.48 198.54 424.67 192.12C424.28 188.96 423.86 185.81 423.52 183.29C423.11 180.2 422.81 178.07 422.81 178.07L422.34 176.51L419.56 167.17L416.94 158.37L415.01 154.91L401.12 161.67L392.48 176.6L395.16 178.29L395.63 178.59L400.56 183.75L414.38 198.25L420.6 204.78L421.33 205.54L422.98 207.6Z" fill="#FFE09C"/>
<path d="M412.06 148.97C412.06 148.97 396.84 156.11 393.18 163.87C393.18 163.87 389.76 170.4 389.33 173.87C389.33 173.87 388.33 177.04 394.64 177.82C394.64 177.82 397.51 166.17 406.12 161.11L414.74 156.06L412.06 148.97Z" fill="#E7C4C3"/>
<path d="M416.026 166.894C416.768 164.124 415.468 161.369 413.122 160.74C410.775 160.111 408.271 161.847 407.529 164.616C406.786 167.386 408.087 170.141 410.433 170.77C412.78 171.399 415.284 169.664 416.026 166.894Z" fill="#FF7F8E"/>
<path d="M414.375 184.999C415.11 182.24 413.811 179.498 411.473 178.876C409.136 178.253 406.645 179.984 405.91 182.743C405.175 185.503 406.474 188.244 408.811 188.867C411.149 189.49 413.639 187.758 414.375 184.999Z" fill="#FF7F8E"/>
<path d="M400.56 183.75C401.357 183.426 402.066 182.917 402.628 182.265C403.19 181.613 403.588 180.837 403.79 180C404.53 177.24 403.23 174.49 400.89 173.87C398.55 173.25 396.06 174.98 395.33 177.74C395.272 177.926 395.229 178.117 395.2 178.31L395.67 178.61L400.56 183.75Z" fill="#FF7F8E"/>
<path d="M419.15 177.08C419.698 177.219 420.269 177.24 420.826 177.141C421.383 177.043 421.912 176.828 422.38 176.51L419.6 167.17C418.772 167.477 418.032 167.984 417.446 168.645C416.86 169.306 416.446 170.101 416.24 170.96C415.51 173.75 416.81 176.46 419.15 177.08Z" fill="#FF7F8E"/>
<path d="M420.76 193.24C421.459 193.405 422.189 193.389 422.88 193.193C423.572 192.997 424.201 192.628 424.71 192.12C424.32 188.96 423.9 185.81 423.56 183.29H423.43C421.09 182.66 418.6 184.4 417.86 187.16C417.12 189.92 418.43 192.62 420.76 193.24Z" fill="#FF7F8E"/>
<path d="M420.6 204.75C420.887 204.266 421.106 203.744 421.25 203.2C421.99 200.44 420.69 197.7 418.35 197.08C417.642 196.908 416.901 196.923 416.2 197.123C415.499 197.323 414.861 197.701 414.35 198.22L420.6 204.75Z" fill="#FF7F8E"/>
<path d="M413.73 162.93L415.33 163.36C414.701 164.517 414.33 165.796 414.24 167.11C414.235 167.197 414.235 167.283 414.24 167.37C414.45 169.02 412.64 166.94 412.64 166.94C412.64 166.94 412.95 163.55 413.73 162.93Z" fill="#94CC79"/>
<path d="M406.44 173.25L408.05 173.68C407.416 174.831 407.044 176.108 406.96 177.42C406.955 177.507 406.955 177.593 406.96 177.68C407.17 179.33 405.36 177.25 405.36 177.25C405.36 177.25 405.66 173.86 406.44 173.25Z" fill="#94CC79"/>
<path d="M411.42 176.66L413.02 177.08C412.391 178.237 412.02 179.516 411.93 180.83C411.925 180.917 411.925 181.003 411.93 181.09C412.15 182.74 410.33 180.66 410.33 180.66C410.33 180.66 410.66 177.27 411.42 176.66Z" fill="#94CC79"/>
<path d="M417.82 185.27L419.43 185.69C418.797 186.845 418.424 188.125 418.34 189.44C418.335 189.527 418.335 189.613 418.34 189.7C418.55 191.35 416.74 189.27 416.74 189.27C416.74 189.27 417.05 185.88 417.82 185.27Z" fill="#94CC79"/>
<path d="M421.81 199.44L423.41 199.87C422.782 201.024 422.411 202.3 422.32 203.61C422.315 203.697 422.315 203.783 422.32 203.87C422.54 205.52 420.72 203.45 420.72 203.45C420.72 203.45 421.03 200.05 421.81 199.44Z" fill="#94CC79"/>
<path d="M413.13 189.53L414.73 189.96C414.098 191.129 413.732 192.423 413.66 193.75C413.655 193.837 413.655 193.923 413.66 194.01C413.87 195.66 412.06 193.59 412.06 193.59C412.06 193.59 412.36 190.14 413.13 189.53Z" fill="#94CC79"/>
<path d="M417.01 150.29C417.01 150.29 414.72 145.1 412.01 148.97C412.238 152.112 413.272 155.143 415.01 157.77C415.01 157.77 423.3 180.32 422.61 183.77C422.61 183.77 425.88 205.55 425.07 206.77C425.07 206.77 425.97 208.31 426.61 202.52C427.25 196.73 424.44 179.72 424.44 179.72L420.33 162.04L417.58 156.04L417.01 150.29Z" fill="#E7C4C3"/>
<path opacity="0.2" d="M417.01 150.29C417.01 150.29 414.72 145.1 412.01 148.97C412.238 152.112 413.272 155.143 415.01 157.77C415.01 157.77 423.3 180.32 422.61 183.77C422.61 183.77 425.88 205.55 425.07 206.77C425.07 206.77 425.97 208.31 426.61 202.52C427.25 196.73 424.44 179.72 424.44 179.72L420.33 162.04L417.58 156.04L417.01 150.29Z" fill="white"/>
<path d="M389.51 158.89C389.51 158.89 393.62 170.73 397.38 167.58L394.38 152.11L389.51 158.89Z" fill="#FBBEBE"/>
<path d="M108.41 207.52C108.41 207.52 144.66 268.59 153.13 276.75C153.13 276.75 189.35 314.35 170.94 311.75C169.59 311.56 143.08 289.15 141.53 285.47C139.98 281.79 89.86 216.68 89.86 216.68L97.01 210.1L108.41 207.52Z" fill="#A0616A"/>
<path opacity="0.1" d="M108.41 207.52C108.41 207.52 144.66 268.59 153.13 276.75C153.13 276.75 189.35 314.35 170.94 311.75C169.59 311.56 143.08 289.15 141.53 285.47C139.98 281.79 89.86 216.68 89.86 216.68L97.01 210.1L108.41 207.52Z" fill="black"/>
<path d="M141.56 406.97C141.56 406.97 129.96 421.47 134.8 427.27C139.64 433.07 163.75 444.16 171.53 443.7C179.75 443.22 207.3 444.7 208.27 432.1C208.27 432.1 210.2 426.3 185.07 425.33C159.94 424.36 167.66 398.26 167.66 398.26L141.56 406.97Z" fill="#2F2E41"/>
<path d="M3.32 284.19C3.32 284.19 -8.28002 323.82 26.52 330.59L64.22 328.66C64.22 328.66 117.39 318.02 131.9 325.76C131.9 325.76 137.7 326.76 135.76 334.46C133.82 342.16 138.66 394.4 138.66 394.4V411.8C138.66 411.8 171.53 411.8 175.4 407.93C175.4 407.93 172.5 392.46 175.4 379.93C178.3 367.4 170.57 327.72 170.57 327.72L169.8 303.91C169.741 300.959 168.898 298.078 167.356 295.561C165.815 293.044 163.632 290.983 161.03 289.59C159.202 288.622 157.169 288.104 155.1 288.08C155.1 288.08 89.36 277.45 66.16 279.38C42.96 281.31 3.32 284.19 3.32 284.19Z" fill="#605D82"/>
<path d="M68.09 157.54C68.09 157.54 85.49 177.84 87.42 184.61C89.35 191.38 110.66 208.75 110.66 208.75C110.66 208.75 95.19 220.35 98.09 226.15C100.99 231.95 77.79 206.82 77.79 206.82L50.66 167.21L68.09 157.54Z" fill="#F50057"/>
<path opacity="0.1" d="M68.09 157.54C68.09 157.54 85.49 177.84 87.42 184.61C89.35 191.38 110.66 208.75 110.66 208.75C110.66 208.75 95.19 220.35 98.09 226.15C100.99 231.95 77.79 206.82 77.79 206.82L50.66 167.21L68.09 157.54Z" fill="black"/>
<path d="M79.66 134.34C79.66 134.34 70.96 162.34 70.96 173.01C70.96 183.68 34.22 170.11 35.19 164.31C36.16 158.51 56.46 137.24 57.43 128.54C58.4 119.84 79.66 134.34 79.66 134.34Z" fill="#A0616A"/>
<path opacity="0.1" d="M50.66 153.67C50.66 153.67 16.82 144.97 11.99 194.28C7.16 243.59 15.85 249.38 1.35002 279.35C-13.15 309.32 99.96 283.22 99.96 283.22C99.96 283.22 94.16 276.45 75.79 279.35L67.09 253.25C67.09 253.25 64.19 241.65 80.63 241.65C97.07 241.65 89.33 207.81 89.33 207.81C89.33 207.81 80.63 178.81 75.79 175.91C70.95 173.01 62.29 155.61 50.66 153.67Z" fill="black"/>
<path d="M50.66 151.75C50.66 151.75 16.82 143.05 11.99 192.35C7.16 241.65 15.85 247.46 1.35002 277.43C-13.15 307.4 99.96 281.3 99.96 281.3C99.96 281.3 94.16 274.53 75.79 277.43L67.09 251.33C67.09 251.33 64.22 239.75 80.66 239.75C97.1 239.75 89.36 205.91 89.36 205.91C89.36 205.91 80.66 176.91 75.82 174.01C70.98 171.11 62.29 153.67 50.66 151.75Z" fill="#F50057"/>
<path d="M77.5 141C98.7629 141 116 123.987 116 103C116 82.0132 98.7629 65 77.5 65C56.237 65 39 82.0132 39 103C39 123.987 56.237 141 77.5 141Z" fill="#A0616A"/>
<path d="M64.83 283.18L145 331.1L219.59 261.6L130.67 230.63L66.68 274.19L64.83 283.18Z" fill="#DADAE5"/>
<path d="M159.44 149.04L134.49 223.24L217.21 247.03L252.52 146.69L159.44 149.04Z" fill="#DADAE5"/>
<path opacity="0.03" d="M152.78 143.56L159.55 149.75L252.63 147.4L254.77 141.32L152.78 143.56Z" fill="black"/>
<path opacity="0.03" d="M128.21 218.97L152.78 143.56L159.55 149.75L135.23 222.09L128.21 218.97Z" fill="black"/>
<path d="M152.67 142.85L159.44 149.04L252.52 146.69L254.66 140.61L152.67 142.85Z" fill="#EFF0F4"/>
<path d="M128.1 218.27L152.67 142.85L159.44 149.04L135.12 221.38L128.1 218.27Z" fill="#EFF0F4"/>
<path opacity="0.03" d="M152.67 142.85L163.02 152.53L256.11 150.18L254.66 140.61L152.67 142.85Z" fill="black"/>
<path opacity="0.03" d="M128.1 218.27L152.67 142.85L163.02 152.53L138.7 224.87L128.1 218.27Z" fill="black"/>
<path opacity="0.03" d="M128.26 219.33L130.52 233.68L219.99 264.74L217.38 248.09L128.26 219.33Z" fill="black"/>
<path opacity="0.03" d="M62.12 266.49L128.26 219.33L131.15 233.67L66.18 281.99L62.12 266.49Z" fill="black"/>
<path d="M128.1 218.27L130.04 230.64L219.51 261.7L217.21 247.03L128.1 218.27Z" fill="#EFF0F4"/>
<path d="M61.95 265.42L128.1 218.27L130.67 230.63L65.7 278.95L61.95 265.42Z" fill="#EFF0F4"/>
<path opacity="0.03" d="M128.1 218.27L130.04 230.64L219.51 261.7L217.21 247.03L128.1 218.27Z" fill="black"/>
<path opacity="0.03" d="M61.95 265.42L128.1 218.27L130.67 230.63L65.7 278.95L61.95 265.42Z" fill="black"/>
<path d="M61.95 265.42L64.94 283.25L144.89 331.02L142.92 312.67L61.95 265.42Z" fill="#CCCAD6"/>
<path d="M98.38 262.6C98.38 262.6 96.99 265.25 99.11 266.47C100.11 267.05 107.34 268.47 114.6 269.83C118.16 270.49 121.73 271.13 124.6 271.63C128.1 272.25 130.52 272.63 130.52 272.63H132.36L143.48 272.84L153.94 273.04L158.37 272.13L155.82 254.75L142.58 240.2L139.81 242.54L139.34 242.94L132.06 246.48L111.52 256.48L102.28 260.98L101.2 261.51L98.38 262.6Z" fill="#FFE09C"/>
<path d="M165.85 270.99C165.85 270.99 163.36 251.99 156.18 245.33C156.18 245.33 150.28 239.33 146.65 237.69C146.65 237.69 143.56 235.5 140.52 242.1C140.52 242.1 152.19 249.24 154.71 260.35L157.22 271.46L165.85 270.99Z" fill="#E7C4C3"/>
<path d="M151.815 264.208C153.302 261.881 152.281 258.573 149.535 256.818C146.789 255.064 143.358 255.529 141.871 257.856C140.385 260.183 141.406 263.492 144.152 265.246C146.898 267 150.329 266.535 151.815 264.208Z" fill="#FF7F8E"/>
<path d="M133.574 260.082C135.061 257.755 134.04 254.446 131.294 252.692C128.548 250.938 125.116 251.402 123.63 253.73C122.143 256.057 123.164 259.365 125.91 261.119C128.656 262.874 132.088 262.409 133.574 260.082Z" fill="#FF7F8E"/>
<path d="M132.06 246.49C132.138 247.474 132.451 248.424 132.973 249.261C133.495 250.098 134.211 250.798 135.06 251.3C137.8 253.05 141.23 252.59 142.71 250.3C144.19 248.01 143.18 244.67 140.43 242.92C140.242 242.8 140.049 242.69 139.85 242.59L139.38 242.99L132.06 246.49Z" fill="#FF7F8E"/>
<path d="M132.86 268.98C132.52 269.528 132.298 270.142 132.21 270.781C132.123 271.42 132.17 272.07 132.35 272.69L143.47 272.9C143.427 271.882 143.13 270.892 142.606 270.018C142.082 269.145 141.348 268.417 140.47 267.9C137.77 266.19 134.34 266.66 132.86 268.98Z" fill="#FF7F8E"/>
<path d="M114.74 265.15C114.317 265.853 114.082 266.652 114.058 267.472C114.033 268.291 114.22 269.103 114.6 269.83C118.16 270.49 121.73 271.13 124.6 271.63L124.69 271.5C126.17 269.18 125.15 265.87 122.41 264.12C119.67 262.37 116.23 262.83 114.74 265.15Z" fill="#FF7F8E"/>
<path d="M102.28 261C102.708 261.477 103.199 261.895 103.74 262.24C106.48 263.99 109.91 263.53 111.39 261.24C111.816 260.535 112.052 259.731 112.074 258.907C112.097 258.083 111.906 257.268 111.52 256.54L102.28 261Z" fill="#FF7F8E"/>
<path d="M150.1 267.98L149.1 269.57C148.064 268.488 146.805 267.646 145.41 267.1L145.12 267.03C143.25 266.69 146.12 265.44 146.12 265.44C146.12 265.44 149.71 266.93 150.1 267.98Z" fill="#94CC79"/>
<path d="M141.41 256.5L140.41 258.1C139.375 257.014 138.116 256.168 136.72 255.62L136.43 255.55C134.57 255.22 137.43 253.96 137.43 253.96C137.43 253.96 141.02 255.45 141.41 256.5Z" fill="#94CC79"/>
<path d="M135.99 260.75L134.99 262.34C133.954 261.258 132.695 260.416 131.3 259.87L131.01 259.8C129.14 259.46 132.01 258.21 132.01 258.21C132.01 258.21 135.59 259.68 135.99 260.75Z" fill="#94CC79"/>
<path d="M124.42 264.75L123.42 266.35C122.385 265.264 121.126 264.418 119.73 263.87L119.44 263.8C117.57 263.47 120.44 262.21 120.44 262.21C120.44 262.21 124.02 263.66 124.42 264.75Z" fill="#94CC79"/>
<path d="M107.66 264.15L106.66 265.75C105.621 264.665 104.359 263.819 102.96 263.27L102.67 263.2C100.81 262.87 103.67 261.61 103.67 261.61C103.67 261.61 107.25 263.09 107.66 264.15Z" fill="#94CC79"/>
<path d="M121.41 258.15L120.41 259.74C119.375 258.654 118.116 257.808 116.72 257.26L116.43 257.19C114.56 256.86 117.43 255.6 117.43 255.6C117.43 255.6 121.01 257.09 121.41 258.15Z" fill="#94CC79"/>
<path d="M162.66 275.92C162.66 275.92 169.09 275.22 165.81 270.99C162.326 270.14 158.683 270.202 155.23 271.17C155.23 271.17 127.86 272.39 124.31 270.43C124.31 270.43 99.51 266.43 98.51 265.17C98.51 265.17 96.51 265.61 102.59 268.31C108.67 271.01 128.12 273.83 128.12 273.83L148.75 275.47L156.17 274.55L162.66 275.92Z" fill="#E7C4C3"/>
<path opacity="0.2" d="M162.66 275.92C162.66 275.92 169.09 275.22 165.81 270.99C162.326 270.14 158.683 270.202 155.23 271.17C155.23 271.17 127.86 272.39 124.31 270.43C124.31 270.43 99.51 266.43 98.51 265.17C98.51 265.17 96.51 265.61 102.59 268.31C108.67 271.01 128.12 273.83 128.12 273.83L148.75 275.47L156.17 274.55L162.66 275.92Z" fill="white"/>
<path d="M143.16 266.11C142.86 267.045 142.787 268.039 142.949 269.008C143.111 269.977 143.502 270.893 144.09 271.68C145.97 274.33 149.32 275.19 151.58 273.6C153.84 272.01 154.13 268.6 152.24 265.9C152.11 265.72 151.97 265.54 151.83 265.37L151.23 265.57L143.16 266.11Z" fill="#FF7F8E"/>
<path d="M142.92 312.67L217.21 247.03L219.49 261.52L144.89 331.02L142.92 312.67Z" fill="#CCCAD6"/>
<path d="M226.85 250.77L217.21 247.03L254.66 140.61L261.8 145.65L226.85 250.77Z" fill="#CCCAD6"/>
<g opacity="0.1">
<path d="M166.56 405.88C166.635 403.306 167.007 400.749 167.67 398.26L167.18 398.43C166.7 400.883 166.492 403.381 166.56 405.88Z" fill="white"/>
<path d="M171.53 441.75C163.75 442.21 139.63 431.11 134.8 425.31C134.162 424.528 133.772 423.574 133.68 422.57C133.537 423.385 133.563 424.221 133.756 425.026C133.948 425.831 134.304 426.588 134.8 427.25C139.63 433.05 163.75 444.14 171.53 443.68C179.75 443.2 207.3 444.68 208.27 432.08C208.337 431.741 208.291 431.39 208.14 431.08C205.92 442.66 179.54 441.3 171.53 441.75Z" fill="white"/>
</g>
<path d="M199.78 207.13C199.78 207.13 201.5 205.13 199.94 203.69C199.19 202.99 193.31 200.31 187.39 197.69C184.48 196.41 181.55 195.15 179.22 194.15L174.37 192.08L172.8 191.68L163.35 189.27L154.46 187L150.46 186.89L149.12 202.28L157.51 217.36L160.33 215.92L160.82 215.67L167.75 214.11L187.33 209.75L196.12 207.75L197.12 207.52L199.78 207.13Z" fill="#FFE09C"/>
<path d="M143.86 186.42C143.86 186.42 142.17 203.14 146.96 210.27C146.96 210.27 150.8 216.55 153.56 218.71C153.56 218.71 155.76 221.19 159.69 216.17C159.69 216.17 151.15 207.73 151.24 197.74L151.32 187.74L143.86 186.42Z" fill="#E7C4C3"/>
<path d="M161.691 202.528C163.426 200.842 163.219 197.815 161.228 195.768C159.238 193.72 156.219 193.427 154.484 195.114C152.75 196.8 152.957 199.826 154.947 201.874C156.937 203.921 159.957 204.214 161.691 202.528Z" fill="#FF7F8E"/>
<path d="M176.442 209.705C178.177 208.019 177.97 204.992 175.979 202.945C173.989 200.897 170.969 200.604 169.235 202.291C167.5 203.977 167.708 207.003 169.698 209.051C171.688 211.098 174.708 211.391 176.442 209.705Z" fill="#FF7F8E"/>
<path d="M167.79 214.12C167.923 213.269 167.851 212.399 167.579 211.581C167.308 210.764 166.845 210.023 166.23 209.42C164.23 207.42 161.23 207.08 159.48 208.77C157.73 210.46 157.96 213.48 159.95 215.53C160.083 215.671 160.223 215.805 160.37 215.93L160.86 215.68L167.79 214.12Z" fill="#FF7F8E"/>
<path d="M171.66 194.75C172.061 194.35 172.373 193.87 172.575 193.341C172.776 192.811 172.863 192.245 172.83 191.68L163.38 189.27C163.217 190.139 163.271 191.034 163.538 191.877C163.805 192.72 164.276 193.484 164.91 194.1C166.87 196.16 169.89 196.45 171.66 194.75Z" fill="#FF7F8E"/>
<path d="M186.32 201.67C186.826 201.151 187.191 200.51 187.378 199.81C187.565 199.109 187.569 198.373 187.39 197.67C184.48 196.39 181.55 195.13 179.22 194.13L179.11 194.22C177.38 195.91 177.59 198.94 179.58 200.99C181.57 203.04 184.59 203.36 186.32 201.67Z" fill="#FF7F8E"/>
<path d="M196.12 207.75C195.855 207.253 195.518 206.798 195.12 206.4C193.12 204.35 190.12 204.06 188.38 205.75C187.871 206.267 187.506 206.908 187.32 207.61C187.134 208.311 187.134 209.049 187.32 209.75L196.12 207.75Z" fill="#FF7F8E"/>
<path d="M156.66 192.15L157.85 191C158.521 192.131 159.428 193.103 160.51 193.85L160.74 193.97C162.27 194.63 159.55 195.12 159.55 195.12C159.55 195.12 156.83 193.13 156.66 192.15Z" fill="#94CC79"/>
<path d="M161.82 203.75L163 202.59C163.669 203.725 164.577 204.7 165.66 205.45L165.89 205.56C167.42 206.23 164.7 206.72 164.7 206.72C164.7 206.72 161.94 204.67 161.82 203.75Z" fill="#94CC79"/>
<path d="M167.29 201.18L168.48 200.02C169.149 201.155 170.057 202.13 171.14 202.88L171.37 202.99C172.9 203.66 170.18 204.15 170.18 204.15C170.18 204.15 167.42 202.16 167.29 201.18Z" fill="#94CC79"/>
<path d="M177.97 200.1L179.16 198.94C179.828 200.072 180.732 201.048 181.81 201.8L182.05 201.92C183.57 202.58 180.86 203.07 180.86 203.07C180.86 203.07 178.1 201.08 177.97 200.1Z" fill="#94CC79"/>
<path d="M192.18 203.96L193.37 202.8C194.034 203.936 194.938 204.912 196.02 205.66L196.26 205.77C197.78 206.44 195.07 206.93 195.07 206.93C195.07 206.93 192.31 204.93 192.18 203.96Z" fill="#94CC79"/>
<path d="M179.22 206.31L180.41 205.16C181.081 206.291 181.988 207.263 183.07 208.01C183.141 208.06 183.218 208.1 183.3 208.13C184.83 208.79 182.11 209.29 182.11 209.29C182.11 209.29 179.35 207.29 179.22 206.31Z" fill="#94CC79"/>
<path d="M147.54 182.84C147.54 182.84 141.91 182.15 143.86 186.42C146.663 187.851 149.785 188.54 152.93 188.42C152.93 188.42 176.54 192.88 179.18 195.26C179.18 195.26 199.55 203.64 200.18 204.94C200.18 204.94 201.97 204.94 197.33 201.43C192.69 197.92 176.66 191.57 176.66 191.57L159.38 186.02L152.86 185.31L147.54 182.84Z" fill="#E7C4C3"/>
<path opacity="0.2" d="M147.54 182.84C147.54 182.84 141.91 182.15 143.86 186.42C146.663 187.851 149.785 188.54 152.93 188.42C152.93 188.42 176.54 192.88 179.18 195.26C179.18 195.26 199.55 203.64 200.18 204.94C200.18 204.94 201.97 204.94 197.33 201.43C192.69 197.92 176.66 191.57 176.66 191.57L159.38 186.02L152.86 185.31L147.54 182.84Z" fill="white"/>
<path d="M118.75 206.13C121.622 204.623 124.221 202.645 126.44 200.28C127.44 199.1 128.28 197.77 129.31 196.61C131.906 193.836 135.281 191.912 138.99 191.09C142.67 190.282 146.433 189.916 150.2 190C152.721 189.839 155.25 190.145 157.66 190.9C158.866 191.294 159.951 191.988 160.816 192.917C161.68 193.846 162.294 194.979 162.6 196.21C163.15 199.21 161.19 202.12 158.84 204.05C156.652 205.835 154.077 207.085 151.32 207.7C149.073 208.089 146.806 208.352 144.53 208.49C131.15 209.89 119.21 217.17 107.53 223.8C97.23 229.63 91.39 229.36 80.7 234.42C80.28 231.22 75.44 233.7 75.51 230.47C75.57 228.06 75.69 224.38 77.97 222.96C80.62 221.31 84.97 220.96 87.97 219.96C94.8625 217.7 101.594 214.977 108.12 211.81C111.727 210.043 115.27 208.15 118.75 206.13Z" fill="#A0616A"/>
<path opacity="0.1" d="M30.39 197.18L81.66 243.58C81.66 243.58 91.33 224.25 94.23 224.25C97.13 224.25 59.43 167.25 59.43 167.25C59.43 167.25 49.76 155.65 43.96 161.45C38.16 167.25 20.72 163.34 30.39 197.18Z" fill="black"/>
<path d="M29.42 195.25L80.66 241.65C80.66 241.65 90.33 222.31 93.23 222.31C96.13 222.31 58.42 165.31 58.42 165.31C58.42 165.31 48.75 153.7 42.95 159.5C37.15 165.3 19.75 161.41 29.42 195.25Z" fill="#F50057"/>
</svg>
